<?xml version="1.0" encoding="UTF-8" standalone="no"?>
<!DOCTYPE svg PUBLIC "-//W3C//DTD SVG 1.1//EN" "http://www.w3.org/Graphics/SVG/1.1/DTD/svg11.dtd">
<svg width="100%" height="100%" viewBox="0 0 8492 2413" version="1.1" xmlns="http://www.w3.org/2000/svg" xmlns:xlink="http://www.w3.org/1999/xlink" xml:space="preserve" xmlns:serif="http://www.serif.com/" style="fill-rule:evenodd;clip-rule:evenodd;stroke-miterlimit:10;">
    <g transform="matrix(4.16667,0,0,4.16667,0,0)">
        <g id="Artboard1" transform="matrix(0.580808,0,0,0.233067,0,0)">
            <rect x="0" y="0" width="3507.87" height="2480.32" style="fill:none;"/>
            <g transform="matrix(7.17392,0,0,17.8776,-149.948,-357.557)">
                <g transform="matrix(60,0,0,60,161.835,105.565)">
                    <path d="M0.066,0.199L0.066,-0.519L0.146,-0.519L0.146,-0.451C0.165,-0.478 0.186,-0.497 0.21,-0.51C0.234,-0.524 0.263,-0.53 0.296,-0.53C0.341,-0.53 0.38,-0.519 0.414,-0.496C0.447,-0.473 0.473,-0.441 0.49,-0.4C0.507,-0.358 0.516,-0.313 0.516,-0.263C0.516,-0.21 0.507,-0.162 0.488,-0.12C0.469,-0.077 0.441,-0.045 0.405,-0.022C0.368,0 0.33,0.012 0.29,0.012C0.261,0.012 0.234,0.006 0.211,-0.007C0.188,-0.019 0.169,-0.035 0.154,-0.054L0.154,0.199L0.066,0.199ZM0.146,-0.256C0.146,-0.19 0.159,-0.14 0.186,-0.108C0.213,-0.076 0.246,-0.061 0.284,-0.061C0.323,-0.061 0.357,-0.077 0.385,-0.11C0.412,-0.143 0.426,-0.194 0.426,-0.264C0.426,-0.33 0.413,-0.379 0.385,-0.412C0.358,-0.445 0.326,-0.461 0.288,-0.461C0.251,-0.461 0.218,-0.444 0.189,-0.409C0.16,-0.374 0.146,-0.323 0.146,-0.256Z" style="fill:rgb(255,144,22);fill-rule:nonzero;"/>
                </g>
                <g transform="matrix(60,0,0,60,196.104,105.565)">
                    <path d="M0.258,-0.079L0.271,-0.001C0.246,0.004 0.224,0.007 0.204,0.007C0.172,0.007 0.147,0.002 0.13,-0.008C0.112,-0.018 0.1,-0.032 0.093,-0.048C0.086,-0.065 0.082,-0.099 0.082,-0.152L0.082,-0.45L0.018,-0.45L0.018,-0.519L0.082,-0.519L0.082,-0.647L0.169,-0.7L0.169,-0.519L0.258,-0.519L0.258,-0.45L0.169,-0.45L0.169,-0.147C0.169,-0.122 0.171,-0.106 0.174,-0.099C0.177,-0.091 0.182,-0.086 0.189,-0.082C0.196,-0.077 0.206,-0.075 0.219,-0.075C0.229,-0.075 0.242,-0.076 0.258,-0.079Z" style="fill:rgb(255,144,22);fill-rule:nonzero;"/>
                </g>
                <g transform="matrix(60,0,0,60,213.674,105.565)">
                    <path d="M0.066,-0L0.066,-0.519L0.145,-0.519L0.145,-0.445C0.183,-0.502 0.238,-0.53 0.31,-0.53C0.341,-0.53 0.37,-0.525 0.396,-0.513C0.422,-0.502 0.442,-0.487 0.455,-0.469C0.468,-0.451 0.477,-0.429 0.482,-0.404C0.486,-0.388 0.487,-0.36 0.487,-0.319L0.487,-0L0.399,-0L0.399,-0.315C0.399,-0.351 0.396,-0.378 0.389,-0.396C0.382,-0.413 0.37,-0.428 0.353,-0.438C0.335,-0.449 0.315,-0.454 0.292,-0.454C0.254,-0.454 0.222,-0.442 0.195,-0.418C0.167,-0.395 0.154,-0.35 0.154,-0.283L0.154,-0L0.066,-0Z" style="fill:rgb(255,144,22);fill-rule:nonzero;"/>
                </g>
                <g transform="matrix(60,0,0,60,247.943,105.565)">
                    <path d="M0.404,-0.064C0.372,-0.036 0.34,-0.017 0.31,-0.005C0.28,0.006 0.248,0.012 0.213,0.012C0.156,0.012 0.113,-0.002 0.082,-0.03C0.051,-0.058 0.036,-0.093 0.036,-0.137C0.036,-0.162 0.042,-0.185 0.053,-0.206C0.065,-0.227 0.08,-0.244 0.099,-0.257C0.118,-0.27 0.139,-0.279 0.162,-0.286C0.179,-0.29 0.205,-0.295 0.24,-0.299C0.311,-0.307 0.363,-0.317 0.397,-0.329L0.397,-0.352C0.397,-0.388 0.389,-0.413 0.373,-0.428C0.35,-0.448 0.317,-0.458 0.272,-0.458C0.231,-0.458 0.201,-0.45 0.181,-0.436C0.161,-0.421 0.147,-0.396 0.137,-0.359L0.051,-0.371C0.059,-0.407 0.072,-0.437 0.09,-0.46C0.108,-0.482 0.134,-0.5 0.167,-0.512C0.201,-0.524 0.241,-0.53 0.285,-0.53C0.329,-0.53 0.365,-0.525 0.393,-0.515C0.421,-0.504 0.441,-0.491 0.454,-0.475C0.467,-0.46 0.476,-0.44 0.481,-0.416C0.484,-0.401 0.486,-0.374 0.486,-0.334L0.486,-0.217C0.486,-0.136 0.488,-0.084 0.491,-0.062C0.495,-0.041 0.503,-0.02 0.514,-0L0.422,-0C0.413,-0.018 0.407,-0.04 0.404,-0.064ZM0.397,-0.26C0.365,-0.247 0.317,-0.236 0.253,-0.227C0.217,-0.222 0.192,-0.216 0.177,-0.209C0.162,-0.203 0.15,-0.193 0.142,-0.181C0.134,-0.168 0.13,-0.154 0.13,-0.139C0.13,-0.116 0.139,-0.096 0.156,-0.081C0.174,-0.065 0.2,-0.057 0.234,-0.057C0.268,-0.057 0.298,-0.065 0.325,-0.079C0.351,-0.094 0.37,-0.114 0.383,-0.14C0.392,-0.16 0.397,-0.189 0.397,-0.228L0.397,-0.26Z" style="fill:rgb(255,144,22);fill-rule:nonzero;"/>
                </g>
                <g transform="matrix(60,0,0,60,282.212,105.565)">
                    <path d="M0.402,-0L0.402,-0.065C0.369,-0.014 0.321,0.012 0.257,0.012C0.216,0.012 0.178,0 0.143,-0.022C0.109,-0.045 0.082,-0.077 0.063,-0.118C0.044,-0.159 0.034,-0.206 0.034,-0.259C0.034,-0.311 0.043,-0.358 0.06,-0.4C0.077,-0.442 0.103,-0.474 0.138,-0.497C0.172,-0.519 0.211,-0.53 0.253,-0.53C0.285,-0.53 0.313,-0.524 0.337,-0.51C0.361,-0.497 0.381,-0.48 0.396,-0.459L0.396,-0.716L0.484,-0.716L0.484,-0L0.402,-0ZM0.125,-0.259C0.125,-0.192 0.139,-0.143 0.167,-0.11C0.194,-0.077 0.228,-0.061 0.266,-0.061C0.304,-0.061 0.337,-0.076 0.364,-0.108C0.39,-0.139 0.404,-0.187 0.404,-0.251C0.404,-0.322 0.39,-0.375 0.363,-0.408C0.335,-0.441 0.302,-0.458 0.262,-0.458C0.223,-0.458 0.19,-0.442 0.164,-0.41C0.138,-0.378 0.125,-0.327 0.125,-0.259Z" style="fill:rgb(255,144,22);fill-rule:nonzero;"/>
                </g>
                <g transform="matrix(60,0,0,60,316.481,105.565)">
                    <rect x="0.032" y="-0.303" width="0.27" height="0.088" style="fill:rgb(255,144,22);"/>
                </g>
                <g transform="matrix(60,0,0,60,337.362,105.565)">
                    <path d="M0.404,-0.19L0.491,-0.179C0.481,-0.119 0.457,-0.073 0.418,-0.039C0.379,-0.005 0.332,0.012 0.275,0.012C0.204,0.012 0.147,-0.011 0.104,-0.058C0.061,-0.104 0.039,-0.171 0.039,-0.257C0.039,-0.313 0.048,-0.362 0.067,-0.404C0.085,-0.446 0.114,-0.478 0.152,-0.499C0.19,-0.52 0.231,-0.53 0.275,-0.53C0.332,-0.53 0.378,-0.516 0.414,-0.488C0.449,-0.459 0.472,-0.419 0.482,-0.366L0.397,-0.353C0.389,-0.388 0.374,-0.414 0.354,-0.432C0.333,-0.449 0.308,-0.458 0.279,-0.458C0.235,-0.458 0.199,-0.442 0.171,-0.41C0.143,-0.379 0.129,-0.328 0.129,-0.26C0.129,-0.19 0.143,-0.139 0.169,-0.108C0.196,-0.076 0.231,-0.061 0.274,-0.061C0.308,-0.061 0.337,-0.071 0.36,-0.092C0.383,-0.113 0.398,-0.146 0.404,-0.19Z" style="fill:rgb(255,144,22);fill-rule:nonzero;"/>
                </g>
                <g transform="matrix(60,0,0,60,368.262,105.565)">
                    <rect x="0.064" y="-0.716" width="0.088" height="0.716" style="fill:rgb(255,144,22);"/>
                </g>
                <g transform="matrix(60,0,0,60,382.492,105.565)">
                    <path d="M0.066,-0.615L0.066,-0.716L0.154,-0.716L0.154,-0.615L0.066,-0.615ZM0.066,-0L0.066,-0.519L0.154,-0.519L0.154,-0L0.066,-0Z" style="fill:rgb(255,144,22);fill-rule:nonzero;"/>
                </g>
                <g transform="matrix(60,0,0,60,396.722,105.565)">
                    <path d="M0.421,-0.167L0.512,-0.156C0.497,-0.103 0.471,-0.062 0.432,-0.032C0.393,-0.003 0.344,0.012 0.284,0.012C0.208,0.012 0.148,-0.012 0.103,-0.058C0.059,-0.105 0.037,-0.171 0.037,-0.255C0.037,-0.342 0.059,-0.41 0.104,-0.458C0.149,-0.506 0.207,-0.53 0.279,-0.53C0.348,-0.53 0.405,-0.507 0.449,-0.459C0.493,-0.412 0.515,-0.346 0.515,-0.26C0.515,-0.255 0.514,-0.247 0.514,-0.237L0.127,-0.237C0.131,-0.18 0.147,-0.136 0.176,-0.106C0.205,-0.076 0.241,-0.061 0.284,-0.061C0.316,-0.061 0.344,-0.069 0.367,-0.086C0.389,-0.103 0.408,-0.13 0.421,-0.167ZM0.132,-0.309L0.422,-0.309C0.418,-0.353 0.407,-0.385 0.389,-0.407C0.361,-0.441 0.324,-0.458 0.28,-0.458C0.239,-0.458 0.205,-0.444 0.178,-0.417C0.15,-0.39 0.135,-0.354 0.132,-0.309Z" style="fill:rgb(255,144,22);fill-rule:nonzero;"/>
                </g>
                <g transform="matrix(60,0,0,60,430.991,105.565)">
                    <path d="M0.066,-0L0.066,-0.519L0.145,-0.519L0.145,-0.445C0.183,-0.502 0.238,-0.53 0.31,-0.53C0.341,-0.53 0.37,-0.525 0.396,-0.513C0.422,-0.502 0.442,-0.487 0.455,-0.469C0.468,-0.451 0.477,-0.429 0.482,-0.404C0.486,-0.388 0.487,-0.36 0.487,-0.319L0.487,-0L0.399,-0L0.399,-0.315C0.399,-0.351 0.396,-0.378 0.389,-0.396C0.382,-0.413 0.37,-0.428 0.353,-0.438C0.335,-0.449 0.315,-0.454 0.292,-0.454C0.254,-0.454 0.222,-0.442 0.195,-0.418C0.167,-0.395 0.154,-0.35 0.154,-0.283L0.154,-0L0.066,-0Z" style="fill:rgb(255,144,22);fill-rule:nonzero;"/>
                </g>
                <g transform="matrix(60,0,0,60,465.26,105.565)">
                    <path d="M0.258,-0.079L0.271,-0.001C0.246,0.004 0.224,0.007 0.204,0.007C0.172,0.007 0.147,0.002 0.13,-0.008C0.112,-0.018 0.1,-0.032 0.093,-0.048C0.086,-0.065 0.082,-0.099 0.082,-0.152L0.082,-0.45L0.018,-0.45L0.018,-0.519L0.082,-0.519L0.082,-0.647L0.169,-0.7L0.169,-0.519L0.258,-0.519L0.258,-0.45L0.169,-0.45L0.169,-0.147C0.169,-0.122 0.171,-0.106 0.174,-0.099C0.177,-0.091 0.182,-0.086 0.189,-0.082C0.196,-0.077 0.206,-0.075 0.219,-0.075C0.229,-0.075 0.242,-0.076 0.258,-0.079Z" style="fill:rgb(255,144,22);fill-rule:nonzero;"/>
                </g>
            </g>
            <g id="XMLID_00000137095350533835815650000003466306646797238693_" transform="matrix(4.78363,-0.0155026,0.0062209,11.9209,195.114,546.859)">
                <g>
                    <g id="XMLID_00000137095350533835815650000003466306646797238693_1" serif:id="XMLID_00000137095350533835815650000003466306646797238693_">
                        <g id="XMLID_00000160167884466530392370000012336008017886385282_">
                            <path d="M0,110.4C0,122.49 0,129.22 4.39,133.61C8.78,138 15.51,138 27.6,138L110.4,138C122.49,138 129.22,138 133.61,133.61C138,129.22 138,122.5 138,110.4L138,27.6C138,15.51 138,8.78 133.61,4.39C129.22,0 122.49,0 110.4,0L27.6,0C15.51,0 8.78,0 4.39,4.39C0,8.78 0,15.51 0,27.6L0,110.4Z" style="fill:rgb(255,0,0);fill-rule:nonzero;"/>
                            <path id="XMLID_00000047767254252987933590000012039059147552122754_" d="M80.89,80.89C74.32,87.46 63.68,87.46 57.11,80.89C50.54,74.32 50.54,63.68 57.11,57.11C63.68,50.54 74.32,50.54 80.89,57.11C87.46,63.68 87.46,74.32 80.89,80.89M118.05,56.74L81.26,19.95C75.89,14.58 72.9,11.59 69,11.59C65.1,11.59 62.11,14.58 56.74,19.95L19.95,56.74C14.58,62.11 11.59,65.1 11.59,69C11.59,72.9 14.58,75.89 19.95,81.26L56.73,118.04C62.1,123.41 65.09,126.4 68.99,126.4C72.89,126.4 75.88,123.41 81.25,118.04L118.03,81.26C123.4,75.89 126.39,72.9 126.39,69C126.41,65.1 123.42,62.11 118.05,56.74Z" style="fill:white;"/>
                        </g>
                    </g>
                </g>
            </g>
            <g transform="matrix(-6.69405,6.42866,2.5797,16.6817,422.263,2007.62)">
                <path d="M-6.695,-2.32C-6.695,-2.32 -1.506,-0.498 0.016,-2.32" style="fill:rgb(155,149,255);fill-rule:nonzero;stroke:rgb(178,163,255);stroke-width:1px;"/>
            </g>
            <g transform="matrix(-3.71673,15.2912,6.13607,9.26215,453.433,2043)">
                <path d="M-5.681,-2.539C-5.681,-2.539 -0.492,-4.362 1.03,-2.539" style="fill:rgb(155,149,255);fill-rule:nonzero;stroke:rgb(178,163,255);stroke-width:1px;"/>
            </g>
            <g transform="matrix(7.17393,-0.023249,0.00932935,17.8776,-108.764,-287.97)">
                <g>
                    <clipPath id="_clip1">
                        <rect x="42.19" y="36.806" width="92.102" height="93.153"/>
                    </clipPath>
                    <g clip-path="url(#_clip1)">
                        <g transform="matrix(1,0,0,1,168.83,129.01)">
                            <path d="M0,-55.898C0,-55.898 -2.021,-39.421 -30.001,-31.959C-57.982,-24.498 -69.951,-32.581 -82.076,-20.301C-90.827,-11.438 -91.885,-7.109 -91.797,-5.386C-91.769,-4.845 -91.426,-4.376 -90.928,-4.162C-88.601,-3.159 -80.332,0 -74.77,-3.046C-68.241,-6.621 -66.22,-15.637 -55.494,-16.57C-44.87,-17.494 -27.534,-9.113 -6.357,-22.705C-5.976,-22.949 -5.732,-23.358 -5.695,-23.809C-4.511,-38.004 0,-55.898 0,-55.898" style="fill:url(#_Radial2);fill-rule:nonzero;"/>
                        </g>
                        <g transform="matrix(1,0,0,1,39.046,73.8483)">
                            <path d="M0,-2.291C0.517,-3.027 1.555,-3.098 2.207,-2.48C4.066,-0.718 8.434,1.812 16.432,-1.754C27.686,-6.771 34.873,-15.72 45.042,-16.804C55.212,-17.889 60.093,-14.364 61.449,-8.94C62.805,-3.516 61.585,5.568 57.652,3.941C53.72,2.314 58.466,-10.703 47.619,-9.754C36.771,-8.804 27.822,12.619 6.534,14.246C-11.144,15.598 -3.202,2.269 0,-2.291" style="fill:rgb(255,237,74);fill-rule:nonzero;"/>
                        </g>
                    </g>
                </g>
            </g>
            <g transform="matrix(3.63657,15.4104,6.18389,-9.06242,507.503,1736.53)">
                <path d="M6.291,-3.534C6.291,-3.534 3.459,0.279 3.524,3.94C3.588,7.6 6.291,10.909 6.291,10.909C6.291,10.909 8.597,8.503 8.607,3.799C8.616,-0.587 6.291,-3.534 6.291,-3.534" style="fill:white;fill-rule:nonzero;"/>
            </g>
            <g transform="matrix(-3.5268,-15.568,-6.24714,8.78883,540.091,1775.91)">
                <path d="M-1.794,-3.07C-2.931,-3.07 -3.854,-2.148 -3.854,-1.011C-3.854,0.127 -2.931,1.048 -1.794,1.048C-0.657,1.049 0.266,0.127 0.265,-1.01C0.265,-2.147 -0.657,-3.07 -1.794,-3.07" style="fill:rgb(29,29,27);fill-rule:nonzero;"/>
            </g>
            <g transform="matrix(7.17393,-0.023249,0.00932935,17.8776,264.733,975.872)">
                <path d="M0,8.316C3.838,8.316 6.949,5.675 6.949,2.418C6.949,1.555 6.726,0.739 6.334,0C5.411,0.489 4.472,0.964 3.492,1.401C-1.116,3.455 -4.514,3.482 -6.926,2.802C-6.692,5.88 -3.685,8.316 0,8.316" style="fill:rgb(249,147,0);fill-rule:nonzero;"/>
            </g>
            <g transform="matrix(-2.92486,-16.3242,-6.55062,7.28882,350.896,832.94)">
                <path d="M-4.373,-5.934C-3.84,-6.171 -3.284,-6.279 -2.728,-6.302C-3.229,-3.292 -3.877,-0.181 -4.373,3.072C-5.337,2.548 -6.164,1.717 -6.656,0.61C-7.79,-1.939 -6.768,-4.868 -4.373,-5.934" style="fill:rgb(249,147,0);fill-rule:nonzero;"/>
            </g>
            <g transform="matrix(4.93135,12.9841,5.21028,-12.2891,457.509,783.089)">
                <path d="M1.46,0.341C2.963,1.933 3.023,4.319 1.594,5.668C1.553,5.707 1.503,5.732 1.46,5.769C-0.101,3.713 -1.166,1.45 -1.954,-0.971C-0.772,-1.107 0.516,-0.659 1.46,0.341" style="fill:rgb(249,147,0);fill-rule:nonzero;"/>
            </g>
            <g transform="matrix(4.64657,13.6208,5.46576,-11.5793,744.576,1600.58)">
                <path d="M3.487,1.496C7.301,5.994 7.499,12.094 3.928,15.121C3.787,15.241 3.636,15.342 3.487,15.449C-0.62,7.893 -4.752,2.434 -8.316,-2.158C-4.736,-3.808 0.187,-2.397 3.487,1.496" style="fill:rgb(249,147,0);fill-rule:nonzero;"/>
            </g>
        </g>
    </g>
    <defs>
        <radialGradient id="_Radial2" cx="0" cy="0" r="1" gradientUnits="userSpaceOnUse" gradientTransform="matrix(45.9009,0,0,27.0725,-45.9009,-28.8255)"><stop offset="0" style="stop-color:rgb(249,255,62);stop-opacity:1"/><stop offset="1" style="stop-color:rgb(255,202,0);stop-opacity:1"/></radialGradient>
    </defs>
</svg>
